HIERARCHY
ROOT Hips
{
  OFFSET 0 0 0
  CHANNELS 6 Xposition Yposition Zposition Zrotation Yrotation Xrotation
  JOINT LeftThigh
  {
    OFFSET 8.409438 0 -5.917753
    CHANNELS 3 Zrotation Yrotation Xrotation
    JOINT LeftLeg
    {
      OFFSET 0 0 -42.358652
      CHANNELS 3 Zrotation Yrotation Xrotation
      JOINT LeftFoot
      {
        OFFSET 0 0 -39.357303
        CHANNELS 3 Zrotation Yrotation Xrotation
      }
    }
  }
  JOINT RightThigh
  {
    OFFSET -8.409438 0 -5.917753
    CHANNELS 3 Zrotation Yrotation Xrotation
    JOINT RightLeg
    {
      OFFSET 0 0 -42.358652
      CHANNELS 3 Zrotation Yrotation Xrotation
      JOINT RightFoot
      {
        OFFSET 0 0 -39.357303
        CHANNELS 3 Zrotation Yrotation Xrotation
      }
    }
  }
  JOINT SpineLow
  {
    OFFSET 0 0 4.719101
    CHANNELS 3 Zrotation Yrotation Xrotation
    JOINT SpineMid
    {
      OFFSET 0 0 12.899191
      CHANNELS 3 Zrotation Yrotation Xrotation
      JOINT Chest
      {
        OFFSET 0 0 12.899191
        CHANNELS 3 Zrotation Yrotation Xrotation
        JOINT LeftShoulder
        {
          OFFSET 7.550562 1.41573 9.438202
          CHANNELS 3 Zrotation Yrotation Xrotation
          JOINT LeftArm
          {
            OFFSET 9.155056 0 4.247191
            CHANNELS 3 Zrotation Yrotation Xrotation
            JOINT LeftForearm
            {
              OFFSET 0 0 25.771955
              CHANNELS 3 Zrotation Yrotation Xrotation
              JOINT LeftHand
              {
                OFFSET 0 0 25.197169
                CHANNELS 3 Zrotation Yrotation Xrotation
              }
            }
          }
        }
        JOINT RightShoulder
        {
          OFFSET -7.550562 1.41573 9.438202
          CHANNELS 3 Zrotation Yrotation Xrotation
          JOINT RightArm
          {
            OFFSET -9.155056 0 4.247191
            CHANNELS 3 Zrotation Yrotation Xrotation
            JOINT RightForearm
            {
              OFFSET 0 0 -25.771955
              CHANNELS 3 Zrotation Yrotation Xrotation
              JOINT RightHand
              {
                OFFSET 0 0 -25.197169
                CHANNELS 3 Zrotation Yrotation Xrotation
              }
            }
          }
        }
        JOINT Neck
        {
          OFFSET 0 0 15.101124
          CHANNELS 3 Zrotation Yrotation Xrotation
          JOINT Head
          {
            OFFSET 0 0 11.325843
            CHANNELS 3 Zrotation Yrotation Xrotation
            End Site
            {
              OFFSET 0 0 14.157303
            }
          }
        }
      }
    }
  }
}
MOTION
Frames: 11
Frame Time: 0.0
0.0  101.685394  0.0  103.5284  -45.441125  -178.12067  20.218453  -39.544255  -3.145713  2.986177  6.953078  55.1802  -8.384517  -12.281536  -11.717974  -24.366724  20.690419  -39.690061  7.464479  1.379529  21.447649  26.202261  11.801465  2.103244  2.260601  3.046787  2.888838  6.564134  8.034688  8.211828  6.564134  8.034687  8.211828  9.808988  13.828655  10.025897  157.275385  42.647039  162.571054  -48.848717  24.140943  65.368785  35.725987  -37.277061  48.892843  24.133978  -5.42345  18.759443  112.010605  57.914518  24.142484  -14.704711  -24.432399  -101.366363  79.199873  42.578685  37.704901  6.236269  16.936551  4.631263  4.511029  12.751538  3.270646  
0.0  101.685394  0.0  101.627029  -45.596425  -177.069918  21.89772  -41.024304  -6.029703  2.650222  9.7488  58.371667  -7.041267  -12.080169  -11.970574  -26.569181  19.708624  -39.868404  9.075849  1.166926  22.150965  25.712434  11.970702  2.23519  2.20334  3.00641  2.960408  6.409899  7.924726  8.396514  6.409899  7.924726  8.396514  10.048935  14.276047  10.336478  157.425472  42.789239  162.748823  -48.446917  23.21897  65.640707  35.619717  -37.454996  48.842714  24.390278  -5.655191  18.985532  111.572356  58.976848  24.327702  -14.270573  -24.738918  -101.631484  79.252737  42.240583  37.851981  6.299294  16.648851  4.699548  4.55961  12.536967  3.323801  
0.0  101.685394  0.0  99.380311  -45.625307  -175.795226  23.790916  -42.124528  -9.067206  2.948548  11.38153  61.556117  -5.9549  -11.811444  -12.286735  -28.21632  19.720323  -39.745483  10.039001  0.460451  22.708996  25.156984  12.283006  2.529302  2.148627  2.99049  3.014324  6.263988  7.883129  8.536108  6.263989  7.883129  8.536108  10.072785  14.498762  10.516467  157.466404  42.93639  162.795159  -48.097173  21.998472  65.621487  35.41503  -37.818394  48.795484  24.622189  -6.045259  19.337932  110.748032  59.960292  24.251181  -13.711032  -25.052411  -102.061471  79.294808  41.892814  37.980742  6.348147  16.284933  4.913116  4.594705  12.266671  3.486723  
0.0  101.685394  0.0  96.931385  -45.704652  -174.292367  26.153398  -42.870285  -12.505022  3.667963  11.464771  64.757768  -5.579471  -11.4549  -12.672499  -29.257522  19.969018  -39.270053  10.483236  -0.005394  23.157637  24.398772  12.353006  2.735784  2.092418  2.947331  3.02649  6.105127  7.771762  8.558009  6.105127  7.771762  8.55801  10.144393  14.790201  10.890789  157.638358  43.134453  163.005032  -47.871194  20.892218  65.623995  35.535541  -38.026038  48.363296  24.851619  -6.467072  19.961322  110.129866  60.865829  24.350558  -13.269042  -25.335526  -102.542691  79.266158  41.584738  38.040912  6.425746  15.946908  5.262922  4.647517  12.017558  3.750151  
0.0  101.685394  0.0  94.418935  -45.708011  -172.65651  28.637262  -43.315484  -16.023126  4.957287  9.861456  68.066197  -6.42066  -11.069814  -13.206101  -29.721546  20.674019  -38.676327  10.279417  -0.38344  23.632132  23.562662  12.495354  2.885075  2.044221  2.91942  3.057947  5.972638  7.699102  8.635618  5.972638  7.699102  8.635618  10.074745  15.120693  11.016436  157.94862  43.374885  163.386629  -47.571394  19.475373  65.669799  35.076131  -38.018881  47.990016  25.046865  -6.85199  20.398181  110.118905  61.656318  24.900731  -13.184958  -25.480335  -102.898304  79.228589  41.217982  38.154341  6.412678  15.59041  5.47752  4.636921  11.752352  3.915627  
0.0  101.685394  0.0  91.795998  -45.727953  -170.950586  30.876558  -43.694827  -19.323049  6.416514  7.243358  71.347215  -7.982407  -10.59822  -13.869824  -29.659996  21.611761  -37.925724  9.508656  -0.707978  24.270602  22.594719  12.705702  2.983894  2.01198  2.880585  3.09088  5.882368  7.594509  8.717968  5.882368  7.594508  8.717967  9.942225  15.468019  11.130726  158.304746  43.491262  163.806143  -47.464278  18.281143  65.980952  34.62825  -37.679621  47.586732  25.162129  -7.253302  20.894156  110.802942  62.416001  25.992774  -13.417907  -25.57993  -103.038303  79.429204  40.797685  38.387944  6.318469  15.199632  5.655694  4.567434  11.46025  4.056527  
0.0  101.685394  0.0  89.034219  -45.729448  -169.073931  32.65872  -43.792533  -22.295587  7.865434  4.009437  74.368672  -10.047778  -10.12859  -14.472033  -29.929664  22.151914  -37.128109  8.8038  -0.902983  24.753198  21.963755  13.019942  3.189663  1.992243  2.8589  3.135867  5.830147  7.533928  8.836722  5.830147  7.533928  8.836721  9.69406  15.707417  11.006233  158.542332  43.672784  164.284378  -47.597065  17.204079  66.193794  34.070212  -37.11367  47.439698  25.165215  -7.701812  21.187467  112.047034  63.115788  27.516037  -14.081955  -25.330544  -102.93453  79.481918  40.288636  38.601025  6.110201  14.726564  5.678222  4.417947  11.103636  4.085187  
0.0  101.685394  0.0  86.176788  -45.721021  -166.969549  33.923838  -43.479187  -25.066627  9.308033  0.587739  77.215438  -12.295691  -9.844722  -14.969396  -30.326704  22.285914  -36.242889  8.329675  -0.81667  24.999774  21.313239  13.231677  3.374697  1.965201  2.838871  3.173258  5.757263  7.479627  8.934057  5.757263  7.479627  8.934057  9.464403  15.963045  10.710334  158.875334  43.7657  164.894544  -47.69417  16.06457  66.644855  33.609172  -36.467821  47.428452  25.223549  -8.110016  21.280442  113.460121  63.662193  29.272169  -14.142083  -25.968743  -103.067593  80.899932  39.884971  39.234399  5.881264  14.250445  5.559518  4.256261  10.743121  4.008592  
0.0  101.685394  0.0  83.345169  -45.69011  -164.700993  34.917008  -42.986624  -27.950836  10.532113  -2.075427  80.11049  -14.170917  -9.694815  -15.351366  -31.070254  22.00342  -35.515502  8.182515  -0.634264  25.106108  20.7156  13.426912  3.542717  1.940488  2.815405  3.1797  5.686797  7.418507  8.946477  5.686797  7.418506  8.946478  9.296666  16.298171  10.437897  159.207236  44.100475  165.781472  -47.688934  14.648466  66.999998  33.182873  -35.979609  47.44727  25.276251  -8.444707  21.340248  114.684352  64.043825  30.985579  -14.636827  -25.589691  -103.276561  80.80732  39.347747  39.380637  5.666155  13.775146  5.40069  4.105414  10.383062  3.901215  
0.0  101.685394  0.0  80.374504  -45.569041  -162.192115  35.688059  -42.508612  -30.998425  11.474098  -3.515647  83.104231  -15.563184  -9.605863  -15.632876  -32.284964  21.362738  -34.868255  8.187283  -0.338844  25.079592  20.062106  13.504684  3.471416  1.924552  2.793552  3.177861  5.639702  7.361315  8.937367  5.639703  7.361315  8.937367  9.006554  16.718054  10.142888  159.586149  44.519239  167.01473  -47.407701  12.607138  67.405975  32.793136  -35.822345  47.361614  25.257464  -8.712075  21.291302  115.165988  64.292035  32.221071  -14.710922  -25.261978  -103.820641  80.699538  38.8606  39.583231  5.36348  13.255084  5.201169  3.890167  9.988401  3.765415  
0.0  101.685394  0.0  77.257159  -45.350289  -159.620358  36.18741  -42.144126  -33.912867  12.246885  -3.700252  86.047752  -16.413167  -9.509884  -15.806915  -33.69285  20.681283  -34.097007  8.416389  -0.107124  24.862107  19.861035  13.663631  3.694546  1.929138  2.76335  3.181979  5.648192  7.278019  8.945943  5.648192  7.278019  8.945943  8.524682  17.175978  9.935455  159.919022  45.01857  168.284073  -46.888032  10.104541  67.919589  32.317326  -35.998723  47.246204  25.059423  -8.99289  21.255116  114.838772  64.42538  32.927682  -14.349871  -24.947761  -104.642438  80.659687  38.418368  39.854901  4.976339  12.689042  5.042838  3.61088  9.559099  3.661946  
